<?xml version="1.0" encoding="UTF-8"?>
<svg id="Camada_2" data-name="Camada 2" xmlns="http://www.w3.org/2000/svg" xmlns:xlink="http://www.w3.org/1999/xlink" viewBox="0 0 507 900">
  <defs>
    <clipPath id="clippath">
      <rect y="0" width="420" height="900" rx="20" ry="20" style="fill: none;"/>
    </clipPath>
    <mask id="mask" x="21.6" y="548.4" width="360" height="288" maskUnits="userSpaceOnUse">
      <g id="mask0_1_256" data-name="mask0 1 256">
        <path d="M38.4,625.2c0-13.26,10.75-24,24-24h295.2c13.26,0,24,10.74,24,24v187.2c0,13.26-10.74,24-24,24H62.4c-13.25,0-24-10.74-24-24v-187.2Z" style="fill: #fff;"/>
      </g>
    </mask>
    <mask id="mask-1" x="0" y="781.8" width="420" height="118.2" maskUnits="userSpaceOnUse">
      <g id="path-11-inside-1_1_256" data-name="path-11-inside-1 1 256">
        <path d="M0,784.8h420v115.2H0v-115.2Z" style="fill: #fff;"/>
      </g>
    </mask>
    <clipPath id="clippath-1">
      <rect x="38.4" y="294" width="144" height="196.8" rx="20" ry="20" style="fill: none;"/>
    </clipPath>
  </defs>
  <g id="Camada_1-2" data-name="Camada 1">
    <g>
      <g>
        <g style="clip-path: url(#clippath);">
          <g>
            <path d="M0,0h420v900H0V0Z" style="fill: #e0f2fe;"/>
            <path d="M38.4,625.2c0-13.26,10.75-24,24-24h295.2c13.26,0,24,10.74,24,24v187.2c0,13.26-10.74,24-24,24H62.4c-13.25,0-24-10.74-24-24v-187.2Z" style="fill: #fff;"/>
            <g style="mask: url(#mask);">
              <g>
                <path d="M296.4,679.8c0,12.92-10.48,23.4-23.4,23.4s-23.4-10.48-23.4-23.4,10.48-23.4,23.4-23.4,23.4,10.48,23.4,23.4Z" style="fill: #fbbf24;"/>
                <path d="M217.2,646.2c0,54.01-43.79,97.8-97.8,97.8s-97.8-43.79-97.8-97.8,43.79-97.8,97.8-97.8,97.8,43.79,97.8,97.8Z" style="fill: #fff;"/>
                <path d="M119.4,732c47.39,0,85.8-38.41,85.8-85.8s-38.41-85.8-85.8-85.8-85.8,38.41-85.8,85.8,38.41,85.8,85.8,85.8ZM119.4,744c54.01,0,97.8-43.79,97.8-97.8s-43.79-97.8-97.8-97.8-97.8,43.79-97.8,97.8,43.79,97.8,97.8,97.8Z" style="fill: #e0f2fe; fill-rule: evenodd;"/>
              </g>
            </g>
            <path d="M381.6,866.4h-211.2l211.2-201.6v201.6Z" style="fill: #bae6fd;"/>
            <path d="M38.4,555.6c0-3.98,3.22-7.2,7.2-7.2h172.8c3.98,0,7.2,3.22,7.2,7.2s-3.22,7.2-7.2,7.2H45.6c-3.98,0-7.2-3.22-7.2-7.2Z" style="fill: #fff;"/>
            <path d="M0,784.8h420v115.2H0v-115.2Z" style="fill: #e0f2fe;"/>
            <g style="mask: url(#mask-1);">
              <path d="M0,787.8h420v-6H0v6Z" style="fill: #fff;"/>
            </g>
            <path d="M58.27,819c.85.03,1.56.66,1.7,1.5l5.89,35.32,5.01-17.52c.22-.76.9-1.29,1.69-1.31.79-.02,1.5.48,1.75,1.23l3.19,9.57h5.9c.99,0,1.8.81,1.8,1.8s-.81,1.8-1.8,1.8h-7.2c-.77,0-1.46-.5-1.71-1.23l-1.76-5.28-5.6,19.61c-.23.81-.99,1.35-1.83,1.3-.84-.05-1.54-.67-1.67-1.5l-5.78-34.66-5.1,20.4c-.2.8-.92,1.36-1.75,1.36h-7.2c-.99,0-1.8-.81-1.8-1.8s.81-1.8,1.8-1.8h5.79l6.86-27.44c.21-.83.97-1.4,1.82-1.36Z" style="fill: #fff; fill-rule: evenodd;"/>
            <path d="M87,847.8c-.99,0-1.8.81-1.8,1.8s.81,1.8,1.8,1.8,1.8-.81,1.8-1.8-.81-1.8-1.8-1.8ZM81.6,849.6c0-2.98,2.42-5.4,5.4-5.4s5.4,2.42,5.4,5.4-2.42,5.4-5.4,5.4-5.4-2.42-5.4-5.4Z" style="fill: #fff; fill-rule: evenodd;"/>
            <path d="M195.25,822.28c3.2-2.14,6.97-3.28,10.82-3.28v1.8-1.8c5.16,0,10.12,2.05,13.77,5.7,3.65,3.65,5.7,8.6,5.7,13.77h0c0,3.85-1.14,7.62-3.28,10.82-2.14,3.2-5.18,5.7-8.74,7.17-3.56,1.47-7.47,1.86-11.25,1.11-3.78-.75-7.25-2.61-9.97-5.33-2.72-2.72-4.58-6.19-5.33-9.97-.75-3.78-.37-7.69,1.11-11.25,1.47-3.56,3.97-6.6,7.17-8.74ZM206.07,822.6c-3.14,0-6.21.93-8.82,2.68-2.61,1.74-4.64,4.22-5.85,7.12-1.2,2.9-1.51,6.09-.9,9.17.61,3.08,2.12,5.91,4.34,8.13,2.22,2.22,5.05,3.73,8.13,4.34,3.08.61,6.27.3,9.17-.9,2.9-1.2,5.38-3.24,7.12-5.85s2.68-5.68,2.68-8.82" style="fill: #fff; fill-rule: evenodd;"/>
            <path d="M217.99,850.39c.7-.7,1.84-.7,2.55,0l12.34,12.34c.7.7.7,1.84,0,2.55s-1.84.7-2.54,0l-12.34-12.34c-.7-.7-.7-1.84,0-2.55Z" style="fill: #fff; fill-rule: evenodd;"/>
            <path d="M331.2,831.6c0-.99.81-1.8,1.8-1.8h39.6c.99,0,1.8.81,1.8,1.8s-.81,1.8-1.8,1.8h-39.6c-.99,0-1.8-.81-1.8-1.8Z" style="fill: #fff; fill-rule: evenodd;"/>
            <path d="M331.2,842.4c0-.99.81-1.8,1.8-1.8h39.6c.99,0,1.8.81,1.8,1.8s-.81,1.8-1.8,1.8h-39.6c-.99,0-1.8-.81-1.8-1.8Z" style="fill: #fff; fill-rule: evenodd;"/>
            <path d="M331.2,853.2c0-.99.81-1.8,1.8-1.8h39.6c.99,0,1.8.81,1.8,1.8s-.81,1.8-1.8,1.8h-39.6c-.99,0-1.8-.81-1.8-1.8Z" style="fill: #fff; fill-rule: evenodd;"/>
            <path d="M67.76,103.09c1.05,1.05,1.05,2.76,0,3.82l-14.29,14.29,14.29,14.29c1.05,1.05,1.05,2.76,0,3.82-1.05,1.05-2.76,1.05-3.82,0l-16.2-16.2c-1.05-1.05-1.05-2.76,0-3.82l16.2-16.2c1.05-1.06,2.76-1.06,3.82,0Z" style="fill: #fff; fill-rule: evenodd;"/>
            <path d="M49.2,121.2c0-1.49,1.21-2.7,2.7-2.7h32.85c1.49,0,2.7,1.21,2.7,2.7s-1.21,2.7-2.7,2.7h-32.85c-1.49,0-2.7-1.21-2.7-2.7Z" style="fill: #fff; fill-rule: evenodd;"/>
            <path d="M130.8,121.2c0-5.3,4.3-9.6,9.6-9.6h139.2c5.3,0,9.6,4.3,9.6,9.6s-4.3,9.6-9.6,9.6h-139.2c-5.3,0-9.6-4.3-9.6-9.6Z" style="fill: #bae6fd;"/>
            <path d="M38.4,214.8c0-3.98,3.22-7.2,7.2-7.2h100.8c3.98,0,7.2,3.22,7.2,7.2s-3.22,7.2-7.2,7.2H45.6c-3.98,0-7.2-3.22-7.2-7.2Z" style="fill: #fff;"/>
            <path d="M38.4,248.4c0-3.98,3.22-7.2,7.2-7.2h154.8c3.98,0,7.2,3.22,7.2,7.2s-3.22,7.2-7.2,7.2H45.6c-3.98,0-7.2-3.22-7.2-7.2Z" style="fill: #fff;"/>
            <path d="M172.8,214.8c0-3.98,3.22-7.2,7.2-7.2h120c3.98,0,7.2,3.22,7.2,7.2s-3.22,7.2-7.2,7.2h-120c-3.98,0-7.2-3.22-7.2-7.2Z" style="fill: #fff;"/>
            <g>
              <g style="clip-path: url(#clippath-1);">
                <g>
                  <rect x="38.4" y="294" width="144" height="196.8" rx="20" ry="20" style="fill: #fff;"/>
                  <path d="M134.32,490.97c0,49.8-40.13,90.17-89.64,90.17s-89.64-40.37-89.64-90.17,40.13-90.17,89.64-90.17,89.64,40.37,89.64,90.17Z" style="fill: #fbbf24;"/>
                  <path d="M158.3,353.16c0,18.08-14.57,32.74-32.54,32.74s-32.54-14.66-32.54-32.74,14.57-32.74,32.54-32.74,32.54,14.66,32.54,32.74Z" style="fill: #fff;"/>
                  <path d="M125.76,382.29c15.97,0,28.95-13.02,28.95-29.14s-12.98-29.14-28.95-29.14-28.94,13.02-28.94,29.14,12.98,29.14,28.94,29.14ZM125.76,385.89c17.97,0,32.54-14.66,32.54-32.74s-14.57-32.74-32.54-32.74-32.54,14.66-32.54,32.74,14.57,32.74,32.54,32.74Z" style="fill: #bae6fd; fill-rule: evenodd;"/>
                </g>
              </g>
              <rect x="39.4" y="295" width="142" height="194.8" rx="19" ry="19" style="fill: none; stroke: #38bdf8; stroke-width: 2px;"/>
            </g>
            <g>
              <rect x="201.6" y="294" width="144" height="196.8" rx="20" ry="20" style="fill: #fff;"/>
              <rect x="202.6" y="295" width="142" height="194.8" rx="19" ry="19" style="fill: none; stroke: #38bdf8; stroke-width: 2px;"/>
              <path d="M325.86,346.84c0,8.88-7.28,16.08-16.26,16.08s-16.26-7.2-16.26-16.08,7.28-16.08,16.26-16.08,16.26,7.2,16.26,16.08Z" style="fill: #fbbf24;"/>
              <path d="M300.31,434.71c0,18.08-14.82,32.74-33.1,32.74s-33.1-14.66-33.1-32.74,14.82-32.74,33.1-32.74,33.1,14.66,33.1,32.74Z" style="fill: #bae6fd;"/>
              <path d="M267.21,463.85c16.33,0,29.5-13.08,29.5-29.14s-13.17-29.14-29.5-29.14-29.5,13.08-29.5,29.14,13.17,29.14,29.5,29.14ZM267.21,467.45c18.28,0,33.1-14.66,33.1-32.74s-14.82-32.74-33.1-32.74-33.1,14.66-33.1,32.74,14.82,32.74,33.1,32.74Z" style="fill: #bae6fd; fill-rule: evenodd;"/>
            </g>
            <g>
              <rect x="364.8" y="294" width="144" height="196.8" rx="20" ry="20" style="fill: #fff;"/>
              <rect x="365.8" y="295" width="142" height="194.8" rx="19" ry="19" style="fill: none; stroke: #38bdf8; stroke-width: 2px;"/>
              <path d="M420,344.4l11.29,32.47,34.37.7-27.39,20.77,9.95,32.9-28.21-19.63-28.21,19.63,9.95-32.9-27.39-20.77,34.36-.7,11.29-32.47Z" style="fill: #fff;"/>
              <path d="M431.29,376.87l-11.29-32.47-11.29,32.47-34.36.7,27.39,20.77-9.95,32.9,28.21-19.63,28.21,19.63-9.95-32.9,27.39-20.77-34.37-.7ZM455.22,380.95l-26.52-.54-8.71-25.05-8.71,25.05-26.51.54,21.13,16.02-7.68,25.38,21.77-15.15,21.77,15.15-7.68-25.38,21.13-16.02Z" style="fill: #fbbf24; fill-rule: evenodd;"/>
            </g>
          </g>
        </g>
        <rect x="2.5" y="2.5" width="415" height="895" rx="17.5" ry="17.5" style="fill: none; stroke: #fff; stroke-width: 5px;"/>
      </g>
      <g>
        <rect x="363" y="293.04" width="144" height="196.8" rx="20" ry="20" style="fill: #fff;"/>
        <rect x="364" y="294.04" width="142" height="194.8" rx="19" ry="19" style="fill: none; stroke: #38bdf8; stroke-width: 2px;"/>
        <path d="M498.89,378.61c0,18.08-14.57,32.74-32.54,32.74s-32.54-14.66-32.54-32.74,14.57-32.74,32.54-32.74,32.54,14.66,32.54,32.74Z" style="fill: #fff;"/>
        <path d="M466.35,407.75c15.97,0,28.94-13.03,28.94-29.14s-12.98-29.14-28.94-29.14-28.94,13.03-28.94,29.14,12.98,29.14,28.94,29.14ZM466.35,411.35c17.97,0,32.54-14.66,32.54-32.74s-14.57-32.74-32.54-32.74-32.54,14.66-32.54,32.74,14.57,32.74,32.54,32.74Z" style="fill: #bae6fd; fill-rule: evenodd;"/>
        <path d="M418.2,343.44l11.29,32.47,34.36.7-27.39,20.77,9.95,32.9-28.21-19.63-28.21,19.63,9.95-32.9-27.39-20.77,34.37-.7,11.29-32.47Z" style="fill: #fff;"/>
        <path d="M429.49,375.91l-11.29-32.47-11.29,32.47-34.37.7,27.39,20.77-9.95,32.9,28.21-19.63,28.21,19.63-9.95-32.9,27.39-20.77-34.36-.7ZM453.42,379.99l-26.52-.54-8.71-25.05-8.71,25.05-26.52.54,21.13,16.02-7.68,25.38,21.77-15.15,21.77,15.15-7.68-25.38,21.13-16.02Z" style="fill: #fbbf24; fill-rule: evenodd;"/>
      </g>
    </g>
  </g>
</svg>