<?xml version="1.0" encoding="UTF-8"?>
<svg id="Camada_2" data-name="Camada 2" xmlns="http://www.w3.org/2000/svg" viewBox="0 0 20 19">
  <g id="Camada_1-2" data-name="Camada 1">
    <path d="M2,16.09c0,.27-.11.52-.29.71-.19.19-.44.29-.71.29s-.52-.11-.71-.29c-.19-.19-.29-.44-.29-.71v-6.09C0,4.48,4.48,0,10,0s10,4.48,10,10v3.09c0,.27-.11.52-.29.71s-.44.29-.71.29-.52-.11-.71-.29-.29-.44-.29-.71v-3.09c0-2.12-.84-4.16-2.34-5.66-1.5-1.5-3.54-2.34-5.66-2.34s-4.16.84-5.66,2.34c-1.5,1.5-2.34,3.54-2.34,5.66v6.09ZM2,10h2c.53,0,1.04.21,1.41.59.38.38.59.88.59,1.41v5c0,.53-.21,1.04-.59,1.41-.38.38-.88.59-1.41.59h-2c-.53,0-1.04-.21-1.41-.59-.38-.38-.59-.88-.59-1.41v-5c0-.53.21-1.04.59-1.41.38-.38.88-.59,1.41-.59ZM2,12v5h2v-5h-2ZM16,10h2c.53,0,1.04.21,1.41.59.38.38.59.88.59,1.41v5c0,.53-.21,1.04-.59,1.41-.38.38-.88.59-1.41.59h-2c-.53,0-1.04-.21-1.41-.59-.38-.38-.59-.88-.59-1.41v-5c0-.53.21-1.04.59-1.41.38-.38.88-.59,1.41-.59ZM16,12v5h2v-5h-2Z" style="fill: #0f172a;"/>
  </g>
</svg>